<?xml version="1.0" encoding="UTF-8"?>
<svg id="Layer_2" data-name="Layer 2" xmlns="http://www.w3.org/2000/svg" viewBox="0 0 569.71 569.71">
  <defs>
    <style>
      .cls-1 {
        fill: none;
        stroke: #000;
        stroke-miterlimit: 10;
        stroke-width: 12px;
      }

      .cls-2 {
        fill: #fff;
      }
    </style>
  </defs>
  <g id="Layer_1-2" data-name="Layer 1">
    <g>
      <path class="cls-1" d="M284.86,6C55.89,6,6,55.89,6,284.86s49.89,278.86,278.86,278.86,278.86-49.89,278.86-278.86S513.82,6,284.86,6Z"/>
      <path d="M284.86,6C55.89,6,6,55.89,6,284.86s49.89,278.86,278.86,278.86,278.86-49.89,278.86-278.86S513.82,6,284.86,6Z"/>
    </g>
    <path class="cls-2" d="M334.51,133.89c-14.61-.38-29.11,1.73-43.04,5.95-10.09,3.05-20.14,1.99-28.33-2.48-4.12-2.25-8.99-3.51-14.38-3.51h-31.84c-18.69,0-36.51,15.15-39.81,33.84l-44.53,252.52c-3.3,18.69,9.18,33.84,27.87,33.84h31.84c18.69,0,36.51-15.15,39.81-33.84l4.49-25.48c1.39-7.86,9.86-13.54,17.08-11.46,10.15,2.92,21.1,4.48,32.7,4.48,71.07,0,138.79-58.4,149.81-129.82,10.38-67.29-34.69-122.27-101.66-124.03ZM337.8,241.49l-55.57,83.51c-1.66,2.5-5.27,1.63-4.78-1.15l8.26-46.85c.57-3.24-1.59-5.87-4.83-5.87h-18.36c-1.94,0-2.85-2.03-1.69-3.78l55.57-83.51c1.66-2.5,5.27-1.63,4.78,1.15l-8.26,46.85c-.57,3.24,1.59,5.87,4.83,5.87h18.36c1.94,0,2.85,2.03,1.69,3.78Z"/>
  </g>
</svg>