<svg width="152" height="166" viewBox="0 0 152 166" fill="none" xmlns="http://www.w3.org/2000/svg">
<mask id="path-1-outside-1_31_82" maskUnits="userSpaceOnUse" x="0" y="0" width="152" height="166" fill="black">
<rect fill="white" width="152" height="166"/>
<path d="M76 6C114.66 6 146 37.3401 146 76C146 87.9406 143.009 99.1823 137.737 109.019C137.951 109.359 138.131 109.733 138.265 110.141L145.141 131.115C146.417 135.009 142.726 138.7 138.832 137.424L119.285 131.016C117.711 132.256 116.082 133.429 114.402 134.533L113.093 155.065C113.019 156.215 112.587 157.205 111.934 157.975C111.788 158.146 111.632 158.306 111.467 158.454C110.556 159.272 109.361 159.741 108.133 159.755C107.016 159.767 105.872 159.402 104.891 158.58L88.5342 144.879C84.4674 145.614 80.2787 146 76 146C71.7206 146 67.5313 145.614 63.4639 144.879L47.1084 158.58C43.9674 161.211 39.1691 159.154 38.9082 155.065L37.5967 134.534C35.9174 133.43 34.2883 132.256 32.7139 131.016L13.168 137.424C9.27447 138.7 5.58301 135.009 6.85938 131.115L13.7354 110.141C13.869 109.733 14.0478 109.359 14.2617 109.019C8.99015 99.1824 6 87.9404 6 76C6 37.3401 37.3401 6 76 6Z"/>
</mask>
<path d="M76 6C114.66 6 146 37.3401 146 76C146 87.9406 143.009 99.1823 137.737 109.019C137.951 109.359 138.131 109.733 138.265 110.141L145.141 131.115C146.417 135.009 142.726 138.7 138.832 137.424L119.285 131.016C117.711 132.256 116.082 133.429 114.402 134.533L113.093 155.065C113.019 156.215 112.587 157.205 111.934 157.975C111.788 158.146 111.632 158.306 111.467 158.454C110.556 159.272 109.361 159.741 108.133 159.755C107.016 159.767 105.872 159.402 104.891 158.58L88.5342 144.879C84.4674 145.614 80.2787 146 76 146C71.7206 146 67.5313 145.614 63.4639 144.879L47.1084 158.58C43.9674 161.211 39.1691 159.154 38.9082 155.065L37.5967 134.534C35.9174 133.43 34.2883 132.256 32.7139 131.016L13.168 137.424C9.27447 138.7 5.58301 135.009 6.85938 131.115L13.7354 110.141C13.869 109.733 14.0478 109.359 14.2617 109.019C8.99015 99.1824 6 87.9404 6 76C6 37.3401 37.3401 6 76 6Z" fill="#BC5B40"/>
<path d="M137.737 109.019L132.449 106.184L130.801 109.259L132.658 112.212L137.737 109.019ZM138.265 110.141L143.966 108.272V108.272L138.265 110.141ZM145.141 131.115L150.842 129.246L150.842 129.246L145.141 131.115ZM138.832 137.424L136.963 143.125L136.963 143.125L138.832 137.424ZM119.285 131.016L121.154 125.314L118.098 124.312L115.572 126.303L119.285 131.016ZM114.402 134.533L111.106 129.52L108.605 131.164L108.415 134.151L114.402 134.533ZM113.093 155.065L119.081 155.448L119.081 155.447L113.093 155.065ZM111.934 157.975L107.36 154.091L107.36 154.091L111.934 157.975ZM111.467 158.454L115.476 162.918L115.476 162.918L111.467 158.454ZM108.133 159.755L108.067 153.755H108.066L108.133 159.755ZM104.891 158.58L108.743 153.981H108.743L104.891 158.58ZM88.5342 144.879L92.387 140.279L90.2325 138.475L87.4668 138.975L88.5342 144.879ZM63.4639 144.879L64.5314 138.975L61.7655 138.475L59.6109 140.279L63.4639 144.879ZM47.1084 158.58L50.9611 163.18L50.9614 163.179L47.1084 158.58ZM38.9082 155.065L44.896 154.683L44.896 154.683L38.9082 155.065ZM37.5967 134.534L43.5845 134.152L43.3937 131.165L40.8927 129.521L37.5967 134.534ZM32.7139 131.016L36.4271 126.303L33.9008 124.312L30.8446 125.314L32.7139 131.016ZM13.168 137.424L15.037 143.125L15.0372 143.125L13.168 137.424ZM6.85938 131.115L1.15792 129.246L1.15792 129.246L6.85938 131.115ZM13.7354 110.141L8.03392 108.271L8.0339 108.272L13.7354 110.141ZM14.2617 109.019L19.3417 112.211L21.1976 109.258L19.5501 106.184L14.2617 109.019ZM76 6V12C111.346 12 140 40.6538 140 76H146H152C152 34.0264 117.974 0 76 0V6ZM146 76H140C140 86.9271 137.265 97.1978 132.449 106.184L137.737 109.019L143.026 111.853C148.753 101.167 152 88.9541 152 76H146ZM137.737 109.019L132.658 112.212C132.622 112.155 132.588 112.086 132.563 112.01L138.265 110.141L143.966 108.272C143.674 107.38 143.281 106.563 142.817 105.825L137.737 109.019ZM138.265 110.141L132.563 112.01L139.439 132.984L145.141 131.115L150.842 129.246L143.966 108.272L138.265 110.141ZM145.141 131.115L139.439 132.984C139.184 132.206 139.922 131.467 140.701 131.722L138.832 137.424L136.963 143.125C145.529 145.933 153.65 137.812 150.842 129.246L145.141 131.115ZM138.832 137.424L140.701 131.722L121.154 125.314L119.285 131.016L117.416 136.717L136.963 143.125L138.832 137.424ZM119.285 131.016L115.572 126.303C114.134 127.436 112.643 128.509 111.106 129.52L114.402 134.533L117.698 139.547C119.52 138.35 121.288 137.076 122.998 135.729L119.285 131.016ZM114.402 134.533L108.415 134.151L107.105 154.684L113.093 155.065L119.081 155.447L120.39 134.915L114.402 134.533ZM113.093 155.065L107.105 154.683C107.109 154.614 107.128 154.512 107.176 154.395C107.222 154.281 107.287 154.177 107.36 154.091L111.934 157.975L116.507 161.858C117.976 160.128 118.923 157.917 119.081 155.448L113.093 155.065ZM111.934 157.975L107.36 154.091C107.394 154.051 107.427 154.018 107.458 153.99L111.467 158.454L115.476 162.918C115.837 162.594 116.183 162.24 116.507 161.858L111.934 157.975ZM111.467 158.454L107.458 153.99C107.623 153.841 107.827 153.758 108.067 153.755L108.133 159.755L108.198 165.755C110.895 165.725 113.489 164.702 115.476 162.918L111.467 158.454ZM108.133 159.755L108.066 153.755C108.186 153.754 108.317 153.773 108.448 153.819C108.583 153.866 108.683 153.93 108.743 153.981L104.891 158.58L101.038 163.18C103.153 164.951 105.699 165.782 108.2 165.755L108.133 159.755ZM104.891 158.58L108.743 153.981L92.387 140.279L88.5342 144.879L84.6813 149.478L101.038 163.18L104.891 158.58ZM88.5342 144.879L87.4668 138.975C83.7487 139.647 79.9172 140 76 140V146V152C80.6402 152 85.1861 151.581 89.6016 150.783L88.5342 144.879ZM76 146V140C72.0819 140 68.2498 139.647 64.5314 138.975L63.4639 144.879L62.3963 150.783C66.8128 151.582 71.3594 152 76 152V146ZM63.4639 144.879L59.6109 140.279L43.2554 153.981L47.1084 158.58L50.9614 163.179L67.3168 149.478L63.4639 144.879ZM47.1084 158.58L43.2557 153.98C43.8842 153.454 44.8439 153.866 44.896 154.683L38.9082 155.065L32.9204 155.448C33.4944 164.443 44.0507 168.968 50.9611 163.18L47.1084 158.58ZM38.9082 155.065L44.896 154.683L43.5845 134.152L37.5967 134.534L31.6089 134.917L32.9204 155.448L38.9082 155.065ZM37.5967 134.534L40.8927 129.521C39.3567 128.511 37.8668 127.437 36.4271 126.303L32.7139 131.016L29.0006 135.729C30.7098 137.075 32.4781 138.35 34.3007 139.548L37.5967 134.534ZM32.7139 131.016L30.8446 125.314L11.2987 131.722L13.168 137.424L15.0372 143.125L34.5831 136.717L32.7139 131.016ZM13.168 137.424L11.2989 131.722C12.0776 131.467 12.8161 132.206 12.5608 132.984L6.85938 131.115L1.15792 129.246C-1.65009 137.812 6.47133 145.933 15.037 143.125L13.168 137.424ZM6.85938 131.115L12.5608 132.984L19.4368 112.01L13.7354 110.141L8.0339 108.272L1.15792 129.246L6.85938 131.115ZM13.7354 110.141L19.4368 112.01C19.4143 112.078 19.3817 112.148 19.3417 112.211L14.2617 109.019L9.18176 105.826C8.71397 106.57 8.3237 107.388 8.03392 108.271L13.7354 110.141ZM14.2617 109.019L19.5501 106.184C14.7341 97.1982 12 86.9273 12 76H6H0C0 88.9536 3.24618 101.167 8.97333 111.853L14.2617 109.019ZM6 76H12C12 40.6538 40.6538 12 76 12V6V0C34.0264 0 0 34.0264 0 76H6Z" fill="url(#paint0_linear_31_82)" mask="url(#path-1-outside-1_31_82)"/>
<path d="M76 6C114.66 6 146 37.3401 146 76C146 100.478 133.435 122.02 114.403 134.532L113.093 155.065C113.068 155.449 113.004 155.815 112.905 156.16C112.839 156.39 112.758 156.612 112.662 156.823C112.185 157.882 111.359 158.702 110.373 159.202C110.176 159.302 109.972 159.389 109.764 159.463C109.243 159.647 108.691 159.748 108.133 159.754L108.132 159.753C107.016 159.765 105.872 159.402 104.891 158.58L88.5352 144.879C84.468 145.614 80.279 146 76 146C71.7203 146 67.5306 145.614 63.4629 144.879L47.1094 158.58C43.9684 161.211 39.1682 159.154 38.9072 155.065L37.5967 134.534C18.5648 122.022 6 100.479 6 76C6 37.3401 37.3401 6 76 6Z" fill="#FE987B"/>
<path d="M76 6C114.66 6 146 37.3401 146 76C146 100.478 133.435 122.02 114.403 134.532L113.093 155.065C113.068 155.449 113.004 155.815 112.905 156.16C112.839 156.39 112.758 156.612 112.662 156.823C112.185 157.882 111.359 158.702 110.373 159.202C110.176 159.302 109.972 159.389 109.764 159.463C109.243 159.647 108.691 159.748 108.133 159.754L108.132 159.753C107.016 159.765 105.872 159.402 104.891 158.58L88.5352 144.879C84.468 145.614 80.279 146 76 146C71.7203 146 67.5306 145.614 63.4629 144.879L47.1094 158.58C43.9684 161.211 39.1682 159.154 38.9072 155.065L37.5967 134.534C18.5648 122.022 6 100.479 6 76C6 37.3401 37.3401 6 76 6Z" fill="url(#paint1_radial_31_82)"/>
<path d="M76 6C114.66 6 146 37.3401 146 76C146 100.478 133.435 122.02 114.403 134.532L113.093 155.065C113.068 155.449 113.004 155.815 112.905 156.16C112.839 156.39 112.758 156.612 112.662 156.823C112.185 157.882 111.359 158.702 110.373 159.202C110.176 159.302 109.972 159.389 109.764 159.463C109.243 159.647 108.691 159.748 108.133 159.754L108.132 159.753C107.016 159.765 105.872 159.402 104.891 158.58L88.5352 144.879C84.468 145.614 80.279 146 76 146C71.7203 146 67.5306 145.614 63.4629 144.879L47.1094 158.58C43.9684 161.211 39.1682 159.154 38.9072 155.065L37.5967 134.534C18.5648 122.022 6 100.479 6 76C6 37.3401 37.3401 6 76 6Z" fill="url(#paint2_radial_31_82)"/>
<g filter="url(#filter0_i_31_82)">
<path d="M46.0059 84.4615C46.5778 80.7441 49.7764 78 53.5376 78H54.8742C58.6353 78 61.8339 80.7441 62.4058 84.4615C63.0725 88.795 63.0725 93.205 62.4058 97.5385C61.8339 101.256 58.6353 104 54.8742 104H53.5376C49.7764 104 46.5778 101.256 46.0059 97.5385C45.3392 93.205 45.3392 88.795 46.0059 84.4615Z" fill="#C36F6C"/>
</g>
<g filter="url(#filter1_i_31_82)">
<path d="M89.0059 84.4615C89.5778 80.7441 92.7764 78 96.5376 78H97.8742C101.635 78 104.834 80.7441 105.406 84.4615C106.073 88.795 106.073 93.205 105.406 97.5385C104.834 101.256 101.635 104 97.8742 104H96.5376C92.7764 104 89.5778 101.256 89.0059 97.5385C88.3392 93.205 88.3392 88.795 89.0059 84.4615Z" fill="#C36F6C"/>
</g>
<g filter="url(#filter2_i_31_82)">
<path d="M89.0054 116.591C84.0274 128.049 67.7493 127.968 62.8856 116.461L62.7189 116.067C62.0052 114.378 63.5125 112.594 65.2965 113.016L69.9077 114.107C73.7798 115.024 77.8107 115.036 81.6883 114.143L86.122 113.123C88.1421 112.658 89.8314 114.69 89.0054 116.591Z" fill="#C36F6C"/>
</g>
<rect x="99.9998" y="82" width="3" height="6" rx="1.5" fill="white" fill-opacity="0.78"/>
<rect x="55.9998" y="82" width="3" height="6" rx="1.5" fill="white" fill-opacity="0.78"/>
<defs>
<filter id="filter0_i_31_82" x="43.5059" y="78" width="19.4" height="28" filterUnits="userSpaceOnUse" color-interpolation-filters="sRGB">
<feFlood flood-opacity="0" result="BackgroundImageFix"/>
<feBlend mode="normal" in="SourceGraphic" in2="BackgroundImageFix" result="shape"/>
<feColorMatrix in="SourceAlpha" type="matrix" values="0 0 0 0 0 0 0 0 0 0 0 0 0 0 0 0 0 0 127 0" result="hardAlpha"/>
<feOffset dx="-2" dy="2"/>
<feGaussianBlur stdDeviation="3.7"/>
<feComposite in2="hardAlpha" operator="arithmetic" k2="-1" k3="1"/>
<feColorMatrix type="matrix" values="0 0 0 0 0 0 0 0 0 0 0 0 0 0 0 0 0 0 0.25 0"/>
<feBlend mode="normal" in2="shape" result="effect1_innerShadow_31_82"/>
</filter>
<filter id="filter1_i_31_82" x="86.5059" y="78" width="19.4" height="28" filterUnits="userSpaceOnUse" color-interpolation-filters="sRGB">
<feFlood flood-opacity="0" result="BackgroundImageFix"/>
<feBlend mode="normal" in="SourceGraphic" in2="BackgroundImageFix" result="shape"/>
<feColorMatrix in="SourceAlpha" type="matrix" values="0 0 0 0 0 0 0 0 0 0 0 0 0 0 0 0 0 0 127 0" result="hardAlpha"/>
<feOffset dx="-2" dy="2"/>
<feGaussianBlur stdDeviation="3.7"/>
<feComposite in2="hardAlpha" operator="arithmetic" k2="-1" k3="1"/>
<feColorMatrix type="matrix" values="0 0 0 0 0 0 0 0 0 0 0 0 0 0 0 0 0 0 0.25 0"/>
<feBlend mode="normal" in2="shape" result="effect1_innerShadow_31_82"/>
</filter>
<filter id="filter2_i_31_82" x="62.5378" y="112.954" width="26.6819" height="16.1842" filterUnits="userSpaceOnUse" color-interpolation-filters="sRGB">
<feFlood flood-opacity="0" result="BackgroundImageFix"/>
<feBlend mode="normal" in="SourceGraphic" in2="BackgroundImageFix" result="shape"/>
<feColorMatrix in="SourceAlpha" type="matrix" values="0 0 0 0 0 0 0 0 0 0 0 0 0 0 0 0 0 0 127 0" result="hardAlpha"/>
<feOffset dy="4"/>
<feGaussianBlur stdDeviation="4.15"/>
<feComposite in2="hardAlpha" operator="arithmetic" k2="-1" k3="1"/>
<feColorMatrix type="matrix" values="0 0 0 0 0 0 0 0 0 0 0 0 0 0 0 0 0 0 0.25 0"/>
<feBlend mode="normal" in2="shape" result="effect1_innerShadow_31_82"/>
</filter>
<linearGradient id="paint0_linear_31_82" x1="76" y1="6" x2="76" y2="159.755" gradientUnits="userSpaceOnUse">
<stop stop-color="#DB886E"/>
<stop offset="1" stop-color="#6A392B"/>
</linearGradient>
<radialGradient id="paint1_radial_31_82" cx="0" cy="0" r="1" gradientUnits="userSpaceOnUse" gradientTransform="translate(105.5 16.5) rotate(113.199) scale(156.123 142.157)">
<stop stop-color="#CB6040" stop-opacity="0"/>
<stop offset="1" stop-color="#CE6345"/>
</radialGradient>
<radialGradient id="paint2_radial_31_82" cx="0" cy="0" r="1" gradientUnits="userSpaceOnUse" gradientTransform="translate(105 6) rotate(112.824) scale(140.501 127.932)">
<stop offset="0.487951" stop-color="#FBA5BA"/>
<stop offset="1" stop-color="#FBA4B9" stop-opacity="0"/>
</radialGradient>
</defs>
</svg>
